{"title":"American Gods S01E02 The Secret of Spoon 720p WEBRip HEVC x265","magnet":"magnet:?xt=urn:btih:c536a279a6d88a8ff22175f5dcdd7fdff983a561&dn=American+Gods+S01E02+The+Secret+of+Spoon+720p+WEBRip+HEVC+x265&tr=udp%3A%2F%2Ftracker.leechers-paradise.org%3A6969&tr=udp%3A%2F%2Fzer0day.ch%3A1337&tr=udp%3A%2F%2Fopen.demonii.com%3A1337&tr=udp%3A%2F%2Ftracker.coppersurfer.tk%3A6969&tr=udp%3A%2F%2Fexodus.desync.com%3A6969","uploader":"jsr.x1","categoryP":"video","categoryS":"hd___tv_shows","size":"481124566","seeders":"93","leechers":"17","description":"Source: American Gods S01E02 720p WEBRip X264-DEFLATE (1.91 GiB)\r\n\r\n\r\nComplete name:\r\nAmerican.Gods.S01E02.The.Secret.of.Spoon.720p.WEBRip.HEVC.2CH.x265.mkv\r\nFormat                                   : Matroska\r\nFormat version                           : Version 4 / Version 2\r\nFile size                                : 459 MiB\r\nDuration                                 : 59mn 1s\r\nOverall bit rate                         : 1 087 Kbps\r\nWriting application                      : Lavf57.25.100\r\n\r\nVideo\r\n\r\nID                                       : 1\r\nFormat                                   : V_MPEGH/ISO/HEVC\r\nDuration                                 : 59mn 1s\r\nBit rate                                 : 841 Kbps\r\nWidth                                    : 1 280 pixels\r\nHeight                                   : 720 pixels\r\nDisplay aspect ratio                     : 16:9\r\nFrame rate                               : 25.000 fps\r\nBits/(Pixel*Frame)                       : 0.037\r\nStream size                              : 355 MiB (77%)\r\nDefault                                  : Yes\r\nForced                                   : No\r\nDURATION                                 : 00:59:01.211000000\r\n\r\nAudio\r\n\r\nID                                       : 2\r\nFormat                                   : E-AC-3\r\nFormat/Info                              : Audio Coding 3\r\nFormat settings, Endianness              : Big\r\nCodec ID                                 : A_EAC3\r\nDuration                                 : 59mn 1s\r\nBit rate mode                            : Constant\r\nBit rate                                 : 224 Kbps\r\nChannel(s)                               : 2 channels\r\nChannel positions                        : Front: L R\r\nSampling rate                            : 48.0 KHz\r\nBit depth                                : 32 bits\r\nCompression mode                         : Lossy\r\nStream size                              : 94.6 MiB (21%)\r\nWriting library                          : Lavc57.24.102 eac3\r\nDefault                                  : Yes\r\nForced                                   : No\r\nDURATION                                 : 00:59:01.215000000\r\n\r\nText\r\n\r\nID                                       : 3\r\nCodec ID                                 : S_TEXT/ASS\r\nLanguage                                 : English","last_updated":"2017-05-09T19:40:02.879Z","parsed":{"xt":"urn:btih:c536a279a6d88a8ff22175f5dcdd7fdff983a561","dn":"American Gods S01E02 The Secret of Spoon 720p WEBRip HEVC x265","tr":["udp://exodus.desync.com:6969","udp://open.demonii.com:1337","udp://tracker.coppersurfer.tk:6969","udp://tracker.leechers-paradise.org:6969","udp://zer0day.ch:1337"],"infoHash":"c536a279a6d88a8ff22175f5dcdd7fdff983a561","infoHashBuffer":{"type":"Buffer","data":[197,54,162,121,166,216,138,143,242,33,117,245,220,221,127,223,249,131,165,97]},"name":"American Gods S01E02 The Secret of Spoon 720p WEBRip HEVC x265","announce":["udp://exodus.desync.com:6969","udp://open.demonii.com:1337","udp://tracker.coppersurfer.tk:6969","udp://tracker.leechers-paradise.org:6969","udp://zer0day.ch:1337"],"urlList":[]}}